<svg width="80" height="81" viewBox="0 0 80 81" fill="none" xmlns="http://www.w3.org/2000/svg">
<g clip-path="url(#clip0_211_583)">
<path d="M74.7253 0.760406H5.27473C2.36157 0.760406 0 3.09631 0 5.9778V75.543C0 78.4245 2.36157 80.7604 5.27473 80.7604H74.7253C77.6384 80.7604 80 78.4245 80 75.543V5.9778C80 3.09631 77.6384 0.760406 74.7253 0.760406Z" fill="#094067"/>
<path d="M42.0535 11.7316C43.51 11.7316 44.7007 12.901 44.5963 14.338C44.3243 18.0839 43.4675 21.7672 42.0531 25.2476C40.3115 29.5327 37.759 33.4262 34.5411 36.706C31.3233 39.9856 27.5032 42.5872 23.2989 44.3621C19.9081 45.7936 16.3209 46.6648 12.6724 46.9484C11.2203 47.0613 10.0377 45.8826 10.0377 44.442V14.3403C10.0377 12.8995 11.2185 11.7316 12.675 11.7316H42.0535Z" fill="#3DA9FC"/>
<path d="M42.0535 75.9161C43.51 75.9161 44.7018 74.7456 44.5861 73.31C44.3033 69.7978 43.4502 66.3448 42.0531 63.0803C40.3115 59.011 37.759 55.3135 34.5411 52.199C31.3233 49.0845 27.5032 46.614 23.2989 44.9284C19.9082 43.569 16.3211 42.7417 12.6727 42.4724C11.2201 42.3652 10.0377 43.5433 10.0377 44.984V73.3074C10.0377 74.7474 11.2185 75.9161 12.675 75.9161H42.0535Z" fill="#3DA9FC"/>
<path d="M42.3421 11.7316C41.3711 11.7316 40.5795 12.5106 40.6259 13.47C40.8214 17.5143 41.6981 21.4986 43.2216 25.2476C44.9632 29.5327 47.5157 33.4262 50.7336 36.706C53.9514 39.9856 57.7715 42.5872 61.9758 44.3621C65.6378 45.9082 69.5297 46.8007 73.4796 47.0052C74.4493 47.0553 75.2369 46.272 75.2369 45.3115V13.4707C75.2369 12.5102 74.4501 11.7316 73.4787 11.7316H42.3421Z" fill="#3DA9FC"/>
<path d="M43.2211 75.9161C41.7646 75.9161 40.5729 74.7456 40.6886 73.31C40.9713 69.7978 41.8245 66.3448 43.2216 63.0803C44.9631 59.011 47.5156 55.3135 50.7335 52.199C53.9513 49.0845 57.7715 46.614 61.9758 44.9284C65.3661 43.569 68.9538 42.7417 72.6022 42.4724C74.0545 42.3652 75.2369 43.5433 75.2369 44.984V73.3074C75.2369 74.7474 74.0562 75.9161 72.5995 75.9161H43.2211Z" fill="#3DA9FC"/>
</g>
<defs>
<clipPath id="clip0_211_583">
<rect width="80" height="80" fill="white" transform="translate(0 0.760406)"/>
</clipPath>
</defs>
</svg>
