<svg width="104" height="120" viewBox="0 0 104 120" fill="none" xmlns="http://www.w3.org/2000/svg">
<g clip-path="url(#clip0_211_557)">
<path d="M86.7253 0.760406H17.2747C14.3616 0.760406 12 3.09631 12 5.9778V75.543C12 78.4245 14.3616 80.7604 17.2747 80.7604H86.7253C89.6384 80.7604 92 78.4245 92 75.543V5.9778C92 3.09631 89.6384 0.760406 86.7253 0.760406Z" fill="#094067"/>
<path d="M54.0535 11.7316C55.51 11.7316 56.7007 12.901 56.5963 14.338C56.3243 18.0839 55.4675 21.7672 54.0531 25.2476C52.3115 29.5327 49.759 33.4262 46.5411 36.706C43.3233 39.9856 39.5032 42.5872 35.2989 44.3621C31.9081 45.7936 28.3209 46.6648 24.6724 46.9484C23.2203 47.0613 22.0377 45.8826 22.0377 44.442V14.3403C22.0377 12.8995 23.2185 11.7316 24.675 11.7316H54.0535Z" fill="#3DA9FC"/>
<path d="M54.0535 75.9161C55.51 75.9161 56.7018 74.7456 56.5861 73.31C56.3033 69.7978 55.4502 66.3448 54.0531 63.0803C52.3115 59.011 49.759 55.3135 46.5411 52.199C43.3233 49.0845 39.5032 46.614 35.2989 44.9284C31.9082 43.569 28.3211 42.7417 24.6727 42.4724C23.2201 42.3652 22.0377 43.5433 22.0377 44.984V73.3074C22.0377 74.7474 23.2185 75.9161 24.675 75.9161H54.0535Z" fill="#3DA9FC"/>
<path d="M54.3421 11.7316C53.3711 11.7316 52.5795 12.5106 52.6259 13.47C52.8214 17.5143 53.6981 21.4986 55.2216 25.2476C56.9632 29.5327 59.5157 33.4262 62.7336 36.706C65.9514 39.9856 69.7715 42.5872 73.9758 44.3621C77.6378 45.9082 81.5297 46.8007 85.4796 47.0052C86.4493 47.0553 87.2369 46.272 87.2369 45.3115V13.4707C87.2369 12.5102 86.4501 11.7316 85.4787 11.7316H54.3421Z" fill="#3DA9FC"/>
<path d="M55.2211 75.9161C53.7646 75.9161 52.5729 74.7456 52.6886 73.31C52.9713 69.7978 53.8245 66.3448 55.2216 63.0803C56.9631 59.011 59.5156 55.3135 62.7335 52.199C65.9513 49.0845 69.7715 46.614 73.9758 44.9284C77.3661 43.569 80.9538 42.7417 84.6022 42.4724C86.0545 42.3652 87.2369 43.5433 87.2369 44.984V73.3074C87.2369 74.7474 86.0562 75.9161 84.5995 75.9161H55.2211Z" fill="#3DA9FC"/>
</g>
<path d="M5.95638 115.92L5.74038 111.432L13.7804 102.96H18.1004L10.8524 110.76L8.69238 113.064L5.95638 115.92ZM2.47638 119.76V102.96H6.34038V119.76H2.47638ZM13.9724 119.76L7.99638 112.44L10.5404 109.68L18.5084 119.76H13.9724ZM19.978 119.76V101.952H23.722V119.76H19.978ZM27.1968 119.76V106.848H30.9408V119.76H27.1968ZM29.0688 105.048C28.3808 105.048 27.8208 104.848 27.3888 104.448C26.9568 104.048 26.7408 103.552 26.7408 102.96C26.7408 102.368 26.9568 101.872 27.3888 101.472C27.8208 101.072 28.3808 100.872 29.0688 100.872C29.7568 100.872 30.3168 101.064 30.7488 101.448C31.1808 101.816 31.3968 102.296 31.3968 102.888C31.3968 103.512 31.1808 104.032 30.7488 104.448C30.3328 104.848 29.7728 105.048 29.0688 105.048ZM42.2635 106.656C43.2875 106.656 44.1995 106.864 44.9995 107.28C45.8155 107.68 46.4555 108.304 46.9195 109.152C47.3835 109.984 47.6155 111.056 47.6155 112.368V119.76H43.8715V112.944C43.8715 111.904 43.6395 111.136 43.1755 110.64C42.7275 110.144 42.0875 109.896 41.2555 109.896C40.6635 109.896 40.1275 110.024 39.6475 110.28C39.1835 110.52 38.8155 110.896 38.5435 111.408C38.2875 111.92 38.1595 112.576 38.1595 113.376V119.76H34.4155V106.848H37.9915V110.424L37.3195 109.344C37.7835 108.48 38.4475 107.816 39.3115 107.352C40.1755 106.888 41.1595 106.656 42.2635 106.656ZM58.8573 106.656C59.8813 106.656 60.7933 106.864 61.5933 107.28C62.4093 107.68 63.0493 108.304 63.5133 109.152C63.9773 109.984 64.2093 111.056 64.2093 112.368V119.76H60.4653V112.944C60.4653 111.904 60.2333 111.136 59.7693 110.64C59.3213 110.144 58.6813 109.896 57.8493 109.896C57.2573 109.896 56.7213 110.024 56.2413 110.28C55.7773 110.52 55.4093 110.896 55.1373 111.408C54.8813 111.92 54.7533 112.576 54.7533 113.376V119.76H51.0093V106.848H54.5853V110.424L53.9133 109.344C54.3773 108.48 55.0413 107.816 55.9053 107.352C56.7693 106.888 57.7533 106.656 58.8573 106.656ZM67.603 119.76V106.848H71.347V119.76H67.603ZM69.475 105.048C68.787 105.048 68.227 104.848 67.795 104.448C67.363 104.048 67.147 103.552 67.147 102.96C67.147 102.368 67.363 101.872 67.795 101.472C68.227 101.072 68.787 100.872 69.475 100.872C70.163 100.872 70.723 101.064 71.155 101.448C71.587 101.816 71.803 102.296 71.803 102.888C71.803 103.512 71.587 104.032 71.155 104.448C70.739 104.848 70.179 105.048 69.475 105.048ZM77.9178 117.12L78.0138 112.56L84.0378 106.848H88.5018L82.7178 112.728L80.7738 114.312L77.9178 117.12ZM74.8218 119.76V101.952H78.5658V119.76H74.8218ZM84.4458 119.76L80.0778 114.336L82.4298 111.432L88.9818 119.76H84.4458ZM98.3511 119.76V117.24L98.1111 116.688V112.176C98.1111 111.376 97.8631 110.752 97.3671 110.304C96.8871 109.856 96.1431 109.632 95.1351 109.632C94.4471 109.632 93.7671 109.744 93.0951 109.968C92.4391 110.176 91.8791 110.464 91.4151 110.832L90.0711 108.216C90.7751 107.72 91.6231 107.336 92.6151 107.064C93.6071 106.792 94.6151 106.656 95.6391 106.656C97.6071 106.656 99.1351 107.12 100.223 108.048C101.311 108.976 101.855 110.424 101.855 112.392V119.76H98.3511ZM94.4151 119.952C93.4071 119.952 92.5431 119.784 91.8231 119.448C91.1031 119.096 90.5511 118.624 90.1671 118.032C89.7831 117.44 89.5911 116.776 89.5911 116.04C89.5911 115.272 89.7751 114.6 90.1431 114.024C90.5271 113.448 91.1271 113 91.9431 112.68C92.7591 112.344 93.8231 112.176 95.1351 112.176H98.5671V114.36H95.5431C94.6631 114.36 94.0551 114.504 93.7191 114.792C93.3991 115.08 93.2391 115.44 93.2391 115.872C93.2391 116.352 93.4231 116.736 93.7911 117.024C94.1751 117.296 94.6951 117.432 95.3511 117.432C95.9751 117.432 96.5351 117.288 97.0311 117C97.5271 116.696 97.8871 116.256 98.1111 115.68L98.6871 117.408C98.4151 118.24 97.9191 118.872 97.1991 119.304C96.4791 119.736 95.5511 119.952 94.4151 119.952Z" fill="#094067"/>
<defs>
<clipPath id="clip0_211_557">
<rect width="80" height="80" fill="white" transform="translate(12 0.760406)"/>
</clipPath>
</defs>
</svg>
